<?xml version="1.0" encoding="UTF-8" standalone="no"?>
<!-- Created with Inkscape (http://www.inkscape.org/) -->

<svg width="650" height="650" viewBox="0 0 171.97917 171.97916" version="1.1" id="svg1" inkscape:version="1.3.2 (1:1.3.2+202311252150+091e20ef0f)" sodipodi:docname="favicon.svg" xmlns:inkscape="http://www.inkscape.org/namespaces/inkscape" xmlns:sodipodi="http://sodipodi.sourceforge.net/DTD/sodipodi-0.dtd" xmlns="http://www.w3.org/2000/svg" xmlns:svg="http://www.w3.org/2000/svg">
  <sodipodi:namedview id="namedview1" pagecolor="#ffffff" bordercolor="#666666" borderopacity="1.0" inkscape:showpageshadow="2" inkscape:pageopacity="0.0" inkscape:pagecheckerboard="0" inkscape:deskcolor="#d1d1d1" inkscape:document-units="mm" inkscape:zoom="0.72337262" inkscape:cx="324.86715" inkscape:cy="319.3375" inkscape:current-layer="layer1" />
  <defs id="defs1" />
  <g inkscape:label="Layer 1" inkscape:groupmode="layer" id="layer1" transform="translate(-19.049996,-64.029164)">
    <g id="g142" transform="matrix(0.26458333,0,0,0.26458333,-559.28683,-259.34986)">
      <path class="cls-3" d="m 2327.72,1501.85 h -141.88 v 171.06 c 0,47.17 38.24,85.42 85.42,85.42 h 232.09 v -80.85 c 0,-97 -78.63,-175.63 -175.63,-175.63 z" id="path139" style="fill:#856dff" />
      <path class="cls-9" d="m 2693.83,1501.85 h 141.88 v 171.06 c 0,47.17 -38.24,85.42 -85.42,85.42 H 2518.2 v -80.85 c 0,-97 78.63,-175.63 175.63,-175.63 z" id="path140" style="fill:#f74666" />
      <path class="cls-1" d="m 2693.83,1486.7 h 141.88 v -171.06 c 0,-47.17 -38.24,-85.42 -85.42,-85.42 H 2518.2 v 80.85 c 0,97 78.63,175.63 175.63,175.63 z" id="path141" style="fill:#f5ca0b" />
      <path class="cls-12" d="m 2327.72,1486.7 h -141.88 v -171.06 c 0,-47.17 38.24,-85.42 85.42,-85.42 h 232.09 v 80.85 c 0,97 -78.63,175.63 -175.63,175.63 z" id="path142" style="fill:#18d2c0" />
      <polygon class="cls-9" points="2641.67,1868.36 2518.28,1773.6 2641.67,1773.6 " id="polygon142" style="fill:#f74666" />
    </g>
  </g>
</svg>
