<?xml version="1.0" encoding="UTF-8" standalone="no"?>
<!-- Created with Inkscape (http://www.inkscape.org/) -->

<svg width="195.92661mm" height="68.384209mm" viewBox="0 0 195.92661 68.384209" version="1.1" id="svg1" inkscape:version="1.3.2 (1:1.3.2+202311252150+091e20ef0f)" sodipodi:docname="racky-logo.svg" xmlns:inkscape="http://www.inkscape.org/namespaces/inkscape" xmlns:sodipodi="http://sodipodi.sourceforge.net/DTD/sodipodi-0.dtd" xmlns="http://www.w3.org/2000/svg" xmlns:svg="http://www.w3.org/2000/svg">
  <sodipodi:namedview id="namedview1" pagecolor="#ffffff" bordercolor="#666666" borderopacity="1.0" inkscape:showpageshadow="2" inkscape:pageopacity="0.0" inkscape:pagecheckerboard="0" inkscape:deskcolor="#d1d1d1" inkscape:document-units="mm" inkscape:zoom="0.72337262" inkscape:cx="370.48679" inkscape:cy="129.94686" inkscape:current-layer="layer1" />
  <defs id="defs1" />
  <g inkscape:label="Layer 1" inkscape:groupmode="layer" id="layer1" transform="translate(-6.8791654,-114.30002)">
    <g id="g139" transform="matrix(0.26458333,0,0,0.26458333,-552.86539,-968.8618)">
      <g id="g133">
        <path class="cls-3" d="m 2173.03,4203.85 h -57.46 v 69.28 c 0,19.11 15.49,34.6 34.6,34.6 h 94 v -32.75 c 0,-39.29 -31.85,-71.13 -71.13,-71.13 z" id="path130" style="fill:#856dff" />
        <path class="cls-9" d="m 2321.31,4203.85 h 57.46 v 69.28 c 0,19.11 -15.49,34.6 -34.6,34.6 h -94 v -32.75 c 0,-39.29 31.85,-71.13 71.13,-71.13 z" id="path131" style="fill:#f74666" />
        <path class="cls-1" d="m 2321.31,4197.72 h 57.46 v -69.28 c 0,-19.11 -15.49,-34.6 -34.6,-34.6 h -94 v 32.75 c 0,39.29 31.85,71.13 71.13,71.13 z" id="path132" style="fill:#f5ca0b" />
        <path class="cls-12" d="m 2173.03,4197.72 h -57.46 v -69.28 c 0,-19.11 15.49,-34.6 34.6,-34.6 h 94 v 32.75 c 0,39.29 -31.85,71.13 -71.13,71.13 z" id="path133" style="fill:#18d2c0" />
        <polygon class="cls-9" points="2300.19,4313.92 2300.19,4352.3 2250.21,4313.92 " id="polygon133" style="fill:#f74666" />
      </g>
      <g id="g138">
        <path d="m 2433.52,4259.17 c -1.02,0 -1.85,-0.35 -2.5,-1.04 -0.65,-0.69 -0.97,-1.5 -0.97,-2.43 v -90.26 c 0,-1.02 0.32,-1.85 0.97,-2.5 0.65,-0.65 1.48,-0.97 2.5,-0.97 h 37.77 c 12.03,0 21.47,2.76 28.33,8.26 6.85,5.51 10.27,13.31 10.27,23.4 0,6.57 -1.58,12.13 -4.72,16.66 -3.15,4.54 -7.31,7.96 -12.5,10.27 l 19.02,34.16 c 0.28,0.56 0.42,1.07 0.42,1.53 0,0.74 -0.3,1.41 -0.9,2.01 -0.6,0.6 -1.27,0.9 -2.01,0.9 h -18.47 c -1.76,0 -3.06,-0.44 -3.89,-1.32 -0.83,-0.88 -1.44,-1.69 -1.81,-2.43 l -15.83,-30.55 h -14.16 v 30.83 c 0,0.93 -0.35,1.74 -1.04,2.43 -0.69,0.69 -1.55,1.04 -2.57,1.04 h -17.91 z m 21.52,-54.02 h 15.97 c 4.35,0 7.61,-1.06 9.79,-3.19 2.17,-2.13 3.26,-5 3.26,-8.61 0,-3.61 -1.04,-6.53 -3.12,-8.75 -2.08,-2.22 -5.39,-3.33 -9.93,-3.33 h -15.97 z" id="path134" />
        <path d="m 2549.61,4260.56 c -5,0 -9.47,-0.95 -13.4,-2.84 -3.94,-1.9 -7.06,-4.47 -9.37,-7.71 -2.32,-3.24 -3.47,-6.89 -3.47,-10.97 0,-6.57 2.68,-11.78 8.05,-15.62 5.37,-3.84 12.5,-6.46 21.38,-7.84 l 17.36,-2.64 V 4211 c 0,-3.33 -0.7,-5.88 -2.08,-7.64 -1.39,-1.76 -3.94,-2.64 -7.64,-2.64 -2.59,0 -4.7,0.51 -6.32,1.53 -1.62,1.02 -2.89,2.41 -3.82,4.17 -0.83,1.2 -1.99,1.81 -3.47,1.81 h -15.55 c -1.02,0 -1.81,-0.3 -2.36,-0.9 -0.56,-0.6 -0.79,-1.32 -0.7,-2.15 0,-1.67 0.62,-3.59 1.88,-5.76 1.25,-2.17 3.17,-4.33 5.76,-6.46 2.59,-2.13 5.92,-3.89 10,-5.28 4.07,-1.39 9.03,-2.08 14.86,-2.08 5.83,0 11.01,0.69 15.27,2.08 4.26,1.39 7.73,3.33 10.42,5.83 2.68,2.5 4.65,5.44 5.9,8.82 1.25,3.38 1.87,7.11 1.87,11.18 v 42.21 c 0,0.93 -0.35,1.74 -1.04,2.43 -0.7,0.69 -1.51,1.04 -2.43,1.04 h -16.11 c -1.02,0 -1.85,-0.35 -2.5,-1.04 -0.65,-0.69 -0.97,-1.5 -0.97,-2.43 v -4.86 c -1.2,1.76 -2.83,3.38 -4.86,4.86 -2.04,1.48 -4.42,2.66 -7.15,3.54 -2.73,0.88 -5.9,1.32 -9.51,1.32 z m 6.53,-15.83 c 2.68,0 5.11,-0.58 7.29,-1.73 2.17,-1.16 3.89,-2.96 5.14,-5.42 1.25,-2.45 1.87,-5.53 1.87,-9.23 v -1.95 l -11.8,2.08 c -4.35,0.74 -7.52,1.87 -9.51,3.4 -1.99,1.53 -2.99,3.31 -2.99,5.35 0,1.57 0.46,2.92 1.39,4.03 0.93,1.11 2.15,1.97 3.68,2.57 1.53,0.6 3.17,0.9 4.93,0.9 z" id="path135" />
        <path d="m 2646.53,4260.56 c -6.85,0 -12.91,-1.25 -18.19,-3.75 -5.28,-2.5 -9.47,-6.13 -12.57,-10.9 -3.1,-4.77 -4.79,-10.48 -5.07,-17.15 -0.09,-1.48 -0.14,-3.35 -0.14,-5.62 0,-2.27 0.05,-4.14 0.14,-5.62 0.28,-6.76 1.95,-12.52 5,-17.29 3.05,-4.77 7.24,-8.4 12.57,-10.9 5.32,-2.5 11.41,-3.75 18.26,-3.75 6.39,0 11.87,0.9 16.46,2.71 4.58,1.81 8.28,4.05 11.11,6.73 2.82,2.69 4.95,5.44 6.39,8.26 1.43,2.83 2.2,5.3 2.29,7.43 0.09,0.93 -0.23,1.74 -0.97,2.43 -0.74,0.69 -1.57,1.04 -2.5,1.04 h -17.64 c -1.02,0 -1.81,-0.23 -2.36,-0.7 -0.56,-0.46 -1.07,-1.16 -1.53,-2.08 -1.11,-2.87 -2.52,-4.9 -4.23,-6.11 -1.71,-1.2 -3.91,-1.81 -6.6,-1.81 -3.7,0 -6.55,1.2 -8.54,3.61 -1.99,2.41 -3.08,6.11 -3.26,11.11 -0.09,3.71 -0.09,6.99 0,9.86 0.28,5.09 1.39,8.8 3.33,11.11 1.94,2.32 4.77,3.47 8.47,3.47 2.87,0 5.14,-0.62 6.81,-1.87 1.66,-1.25 3.01,-3.26 4.03,-6.04 0.46,-0.93 0.97,-1.62 1.53,-2.08 0.56,-0.46 1.34,-0.69 2.36,-0.69 h 17.64 c 0.93,0 1.76,0.32 2.5,0.97 0.74,0.65 1.06,1.48 0.97,2.5 -0.09,1.48 -0.56,3.29 -1.39,5.42 -0.83,2.13 -2.13,4.35 -3.89,6.66 -1.76,2.32 -4.05,4.44 -6.87,6.39 -2.83,1.94 -6.23,3.54 -10.21,4.79 -3.98,1.25 -8.61,1.87 -13.89,1.87 z" id="path136" />
        <path d="m 2702.22,4259.17 c -1.02,0 -1.85,-0.35 -2.5,-1.04 -0.65,-0.69 -0.97,-1.5 -0.97,-2.43 v -91.65 c 0,-1.02 0.32,-1.85 0.97,-2.5 0.65,-0.65 1.48,-0.97 2.5,-0.97 h 16.11 c 0.93,0 1.74,0.32 2.43,0.97 0.69,0.65 1.04,1.48 1.04,2.5 v 46.52 l 19.3,-21.25 c 0.56,-0.65 1.16,-1.2 1.81,-1.66 0.65,-0.46 1.57,-0.7 2.78,-0.7 h 18.61 c 0.83,0 1.55,0.3 2.15,0.9 0.6,0.6 0.9,1.32 0.9,2.15 0,0.37 -0.07,0.79 -0.21,1.25 -0.14,0.46 -0.44,0.83 -0.9,1.11 l -24.99,26.94 28.47,34.58 c 0.74,0.74 1.11,1.44 1.11,2.08 0,0.93 -0.3,1.69 -0.9,2.29 -0.6,0.6 -1.37,0.9 -2.29,0.9 h -19.02 c -1.39,0 -2.41,-0.25 -3.06,-0.76 -0.65,-0.51 -1.25,-1.04 -1.81,-1.6 l -21.94,-26.38 v 25.27 c 0,0.93 -0.35,1.74 -1.04,2.43 -0.69,0.69 -1.5,1.04 -2.43,1.04 h -16.11 z" id="path137" />
        <path d="m 2796.92,4285.56 c -0.83,0 -1.53,-0.28 -2.08,-0.83 -0.56,-0.56 -0.83,-1.25 -0.83,-2.08 0,-0.19 0.02,-0.44 0.07,-0.76 0.05,-0.33 0.16,-0.67 0.35,-1.04 l 10.83,-26.11 -26.66,-63.04 c -0.28,-0.65 -0.42,-1.2 -0.42,-1.66 0.18,-0.83 0.56,-1.55 1.11,-2.15 0.56,-0.6 1.25,-0.9 2.08,-0.9 h 15.83 c 1.2,0 2.11,0.3 2.71,0.9 0.6,0.6 1.04,1.27 1.32,2.01 l 15.83,40.41 16.25,-40.41 c 0.37,-0.74 0.85,-1.41 1.46,-2.01 0.6,-0.6 1.5,-0.9 2.71,-0.9 h 15.55 c 0.83,0 1.55,0.3 2.15,0.9 0.6,0.6 0.9,1.27 0.9,2.01 0,0.46 -0.14,1.07 -0.41,1.81 l -39.3,90.96 c -0.28,0.74 -0.74,1.41 -1.39,2.01 -0.65,0.6 -1.57,0.9 -2.78,0.9 h -15.27 z" id="path138" />
      </g>
    </g>
  </g>
</svg>
